<svg xmlns="http://www.w3.org/2000/svg" width="128" height="128" fill="none"><path stroke="#E1E1E1" stroke-width="2" d="m85 54 9.565 9.565m0-9.565L85 63.565"/><path fill="#E1E1E1" d="M64.83 14c18.826 0 31.703 10 37.703 18-14.63 0-25.294-1.854-32.123 4.985-6.829 6.84-5.58 17.028-5.58 22.32 0 5.291.096 10.13-1.593 15.144-1.69 5.015-2.841 6.11-7.174 9.566C51.729 87.47 43.743 86 19.033 86c-3.791-7.475-5-13.537-5-22.5-1-23 20.575-49.5 50.797-49.5ZM48.5 65.01c-.475 0-.881.167-1.22.5a1.602 1.602 0 0 0-.5 1.204c-.005.479.162.885.5 1.219.339.333.745.5 1.22.5.306 0 .588-.076.843-.227.26-.156.469-.365.625-.625a1.643 1.643 0 0 0-.273-2.07 1.65 1.65 0 0 0-1.196-.5Zm6.38 0c-.474 0-.88.167-1.219.5a1.601 1.601 0 0 0-.5 1.204c-.005.479.162.885.5 1.219.339.333.745.5 1.22.5.306 0 .588-.076.843-.227.26-.156.469-.365.625-.625a1.643 1.643 0 0 0-.273-2.07 1.65 1.65 0 0 0-1.196-.5ZM19.833 52.26v2.43h8.25L19.88 66.456v1.805h11.844v-2.43h-8.242l8.195-11.766v-1.804H19.833Zm14.617 4v2.345h5.985v.101l-6.188 7.758v1.797H44.1v-2.344h-6.094v-.102l5.89-7.625v-1.93H34.45Z"/><circle cx="64" cy="64" r="50" stroke="#E1E1E1" stroke-width="8"/></svg>