<svg xmlns="http://www.w3.org/2000/svg" width="256" height="256" fill="none"><path stroke="#E1E1E1" stroke-width="3" d="m167.855 107.275 19.131 19.131m0-19.131-19.131 19.131"/><path fill="#E1E1E1" d="M127.445 18c37.653 0 70.994 19.34 90.687 48.406h-13.611c-29.26 0-50.109-4.113-63.767 9.566-13.658 13.678-11.16 34.054-11.16 44.637 0 10.584.191 20.26-3.188 30.289-3.379 10.03-5.682 12.221-14.348 19.131-8.667 6.911-32.638 4.202-82.058 4.202-7.583-14.949-12-28.42-12-46.346C18 67.197 67 18 127.445 18Zm-19.302 113.682c-.776 0-1.441.273-1.995.818a2.621 2.621 0 0 0-.818 1.969 2.655 2.655 0 0 0 .818 1.994 2.744 2.744 0 0 0 1.995.818 2.66 2.66 0 0 0 1.38-.371 2.944 2.944 0 0 0 1.023-1.022c.264-.426.401-.899.409-1.419-.008-.767-.294-1.424-.856-1.969-.554-.545-1.206-.818-1.956-.818Zm10.441 0c-.776 0-1.44.273-1.994.818a2.622 2.622 0 0 0-.819 1.969 2.652 2.652 0 0 0 .819 1.994 2.742 2.742 0 0 0 1.994.818c.503 0 .963-.124 1.381-.371a2.933 2.933 0 0 0 1.022-1.022c.265-.426.401-.899.409-1.419-.008-.767-.293-1.424-.856-1.969-.554-.545-1.206-.818-1.956-.818Zm-77.565-20.864v3.976h13.5l-13.422 19.253V137h19.38v-3.976H46.99l13.41-19.253v-2.953H41.02Zm23.92 6.545v3.836h9.792v.166L64.606 134.06V137h16.122v-3.835h-9.972v-.166l9.638-12.478v-3.158H64.938Zm20.214 0v3.836h9.793v.166L84.821 134.06V137h16.121v-3.835h-9.971v-.166l9.638-12.478v-3.158H85.153Z"/><circle cx="128" cy="128" r="105" stroke="#E1E1E1" stroke-width="10"/></svg>